<svg xmlns="http://www.w3.org/2000/svg" viewBox="620 130 100 80">
  <style>
    path { fill: #000; }
    @media (prefers-color-scheme: dark) { path { fill: #fff; } }
  </style>
  <path d="M704.371704,137.137207 C708.022766,134.119324 711.456177,133.980682 714.355408,137.336578 C717.457092,140.926926 716.318420,144.365051 713.241394,147.500900 C695.391663,165.691956 677.585815,183.926147 659.714111,202.095596 C655.265747,206.618118 652.345093,206.494858 647.946960,201.845551 C641.079041,194.585358 634.228577,187.308365 627.410706,180.001190 C623.461121,175.768143 623.258240,171.936874 626.691345,168.659225 C629.896484,165.599274 633.406006,166.001526 637.555786,170.069916 C641.718079,174.150589 646.070496,178.089508 649.802551,182.540833 C652.918396,186.257202 655.145203,185.747665 658.229797,182.676575 C672.747314,168.222580 687.390564,153.894882 701.986816,139.519989 C702.698853,138.818756 703.390869,138.097183 704.371704,137.137207z"/>
</svg>
